<svg width="34" height="34" viewBox="0 0 34 34" fill="none" xmlns="http://www.w3.org/2000/svg">
<path d="M9.81079 13.2357V15.1718C10.2838 14.6326 10.6136 13.983 10.7697 13.283C10.4543 13.2184 10.131 13.2025 9.81079 13.2357Z" fill="white"/>
<path d="M27.6284 13.9444C27.5928 13.9226 27.5598 13.8967 27.5303 13.8672L23.8453 10.182L24.1352 12.0668C24.1472 12.145 24.1416 12.225 24.1187 12.3007C24.0959 12.3765 24.0564 12.4462 24.0032 12.5048C23.9499 12.5633 23.8843 12.6092 23.811 12.6392C23.7378 12.6691 23.6587 12.6823 23.5797 12.6778C23.4059 12.6678 23.2355 12.6627 23.0734 12.6627C22.0249 12.661 20.9847 12.8493 20.0032 13.2184C19.8992 14.9629 19.3159 16.6448 18.3175 18.0791C17.3191 19.5133 15.9443 20.6443 14.3444 21.3474C14.3444 21.3625 14.3438 21.3775 14.3438 21.3926C14.3438 26.2062 18.2599 30.1223 23.0734 30.1223C27.887 30.1223 31.8031 26.2062 31.8031 21.3926C31.8082 19.8966 31.4265 18.4246 30.6951 17.1196C29.9636 15.8146 28.9072 14.7208 27.6284 13.9444ZM25.7199 24.3901C25.6564 24.419 25.5878 24.4351 25.5181 24.4374C25.4483 24.4398 25.3788 24.4284 25.3135 24.4039C25.2482 24.3794 25.1883 24.3423 25.1373 24.2947C25.0863 24.247 25.0452 24.1898 25.0164 24.1263L24.4334 22.8438H21.254L20.6711 24.1261C20.6128 24.2544 20.5059 24.3542 20.374 24.4037C20.2421 24.4532 20.0959 24.4482 19.9676 24.3899C19.8394 24.3316 19.7395 24.2247 19.69 24.0928C19.6406 23.9608 19.6455 23.8147 19.7039 23.6864L22.3601 17.8426C22.4023 17.7498 22.4704 17.671 22.5561 17.6158C22.6419 17.5606 22.7417 17.5312 22.8437 17.5312C22.9458 17.5312 23.0456 17.5606 23.1314 17.6158C23.2171 17.671 23.2852 17.7498 23.3274 17.8426L25.9836 23.6864C26.0125 23.7499 26.0286 23.8185 26.031 23.8882C26.0333 23.9579 26.022 24.0274 25.9975 24.0928C25.973 24.1581 25.9358 24.218 25.8882 24.2689C25.8406 24.3199 25.7834 24.361 25.7199 24.3899V24.3901Z" fill="white"/>
<path d="M18.9573 12.6661C18.9571 11.1979 18.5728 9.75523 17.8425 8.48145C17.1123 7.20767 16.0615 6.14708 14.7946 5.40504C13.5276 4.66299 12.0886 4.26531 10.6204 4.25147C9.15223 4.23764 7.70597 4.60814 6.42527 5.32618C5.14457 6.04422 4.074 7.08482 3.31989 8.34462C2.56578 9.60441 2.15437 11.0396 2.12651 12.5076C2.09866 13.9756 2.45533 15.4253 3.16111 16.7128C3.86689 18.0003 4.89721 19.0807 6.14975 19.8469C6.18537 19.8686 6.21829 19.8946 6.24783 19.9241L9.76929 23.4456L9.49749 21.6792C9.48549 21.601 9.49112 21.5211 9.51395 21.4453C9.53679 21.3696 9.57627 21.2999 9.62949 21.2413C9.68271 21.1828 9.74835 21.1368 9.82159 21.1069C9.89484 21.077 9.97385 21.0638 10.0528 21.0683C10.2208 21.0778 10.3849 21.0827 10.5411 21.0827C12.7725 21.0802 14.9118 20.1926 16.4896 18.6148C18.0674 17.0369 18.9548 14.8975 18.9573 12.6661ZM13.0355 16.6513C12.9359 16.751 12.8008 16.8069 12.6599 16.8069C12.519 16.807 12.3838 16.751 12.2842 16.6514C12.1846 16.5517 12.1286 16.4166 12.1286 16.2757C12.1286 16.1348 12.1845 15.9996 12.2842 15.9C12.4111 15.7731 12.5105 15.6213 12.5761 15.4541C12.6416 15.287 12.6719 15.1081 12.6651 14.9287C12.6582 14.7493 12.6143 14.5732 12.5362 14.4116C12.4581 14.2499 12.3474 14.1061 12.2111 13.9893C12.0732 13.871 11.9255 13.7646 11.7696 13.6713C11.5312 14.606 11.0443 15.4587 10.3605 16.1391C10.152 16.3476 9.90189 16.5098 9.62647 16.615C9.35105 16.7203 9.05653 16.7663 8.76214 16.75C8.46774 16.7337 8.18009 16.6555 7.91797 16.5205C7.65585 16.3855 7.42515 16.1967 7.24094 15.9665C7.06295 15.744 6.93217 15.4875 6.8566 15.2128C6.78103 14.9381 6.76225 14.6508 6.8014 14.3686C6.84055 14.0864 6.93682 13.8151 7.08432 13.5713C7.23182 13.3276 7.42746 13.1164 7.6593 12.9508C7.99331 12.7123 8.35997 12.5233 8.74796 12.3895V10.625H6.62296C6.48207 10.625 6.34694 10.569 6.24731 10.4694C6.14768 10.3698 6.09171 10.2347 6.09171 10.0938C6.09171 9.95287 6.14768 9.81774 6.24731 9.71812C6.34694 9.61849 6.48207 9.56252 6.62296 9.56252H8.74796V7.96877C8.74796 7.82787 8.80393 7.69274 8.90356 7.59312C9.00319 7.49349 9.13831 7.43752 9.27921 7.43752C9.42011 7.43752 9.55523 7.49349 9.65486 7.59312C9.75449 7.69274 9.81046 7.82787 9.81046 7.96877V9.56252H12.4667C12.6076 9.56252 12.7427 9.61849 12.8424 9.71812C12.942 9.81774 12.998 9.95287 12.998 10.0938C12.998 10.2347 12.942 10.3698 12.8424 10.4694C12.7427 10.569 12.6076 10.625 12.4667 10.625H9.81046V12.1687C10.1654 12.1414 10.5224 12.1589 10.873 12.2207V11.6875C10.873 11.5466 10.9289 11.4115 11.0286 11.3119C11.1282 11.2122 11.2633 11.1563 11.4042 11.1563C11.5451 11.1563 11.6802 11.2122 11.7799 11.3119C11.8795 11.4115 11.9355 11.5466 11.9355 11.6875V12.336C11.9355 12.4091 11.9341 12.4825 11.9311 12.5552C12.2818 12.7194 12.6085 12.9304 12.9023 13.1826C13.1497 13.3947 13.3507 13.6557 13.4925 13.9491C13.6344 14.2426 13.7141 14.5622 13.7266 14.8878C13.7391 15.2135 13.6842 15.5383 13.5652 15.8418C13.4463 16.1452 13.266 16.4208 13.0355 16.6513Z" fill="white"/>
<path d="M7.85393 14.5145C7.83499 14.65 7.84318 14.7879 7.87802 14.9201C7.91286 15.0524 7.97366 15.1765 8.05688 15.2851C8.14009 15.3936 8.24407 15.4846 8.36276 15.5526C8.48145 15.6206 8.61248 15.6644 8.74822 15.6813V13.5364C8.58354 13.6158 8.42594 13.7091 8.27714 13.8153C8.16237 13.8965 8.06557 14.0005 7.99276 14.1208C7.91995 14.2411 7.87269 14.3751 7.85393 14.5145Z" fill="white"/>
<path d="M21.7371 21.7812H23.9506L22.8439 19.3463L21.7371 21.7812Z" fill="white"/>
</svg>
